<?xml version="1.0" encoding="utf-8"?>
<!-- Generator: Adobe Illustrator 19.2.1, SVG Export Plug-In . SVG Version: 6.00 Build 0)  -->
<svg version="1.1" id="Layer_1" xmlns="http://www.w3.org/2000/svg" xmlns:xlink="http://www.w3.org/1999/xlink" x="0px" y="0px"
	 viewBox="0 0 40 40" style="enable-background:new 0 0 40 40;" xml:space="preserve">
<style type="text/css">
	.st0{fill:#B59757;}
</style>
<g>
	<path class="st0" d="M34.4,31.4H40l-1.6-5.4h-4c-4.4,0-8.6,1.9-11.5,5.2L20,34.6l-2.9-3.4c-2.9-3.3-7.1-5.2-11.5-5.2h-4L0,31.4h5.6
		c4.4,0,8.6,1.9,11.5,5.2l0.3,0.3h-3.8V40h12.9v-3.1h-3.8l0.3-0.3C25.8,33.3,30,31.4,34.4,31.4"/>
	<path class="st0" d="M22.6,21.8L20,25.1l-2.6-3.3c-0.6-0.8-0.7-1.9-0.1-2.7l2.7-4.4l2.7,4.4C23.3,19.9,23.2,21,22.6,21.8
		 M16.9,11.2l-3.3,5.3c-1.2,2-1.1,4.5,0.3,6.3l6.1,7.7l6.1-7.7c1.4-1.8,1.6-4.4,0.3-6.3L20,6.2l-0.2,0.3C19.5,6.8,19,7.2,18,7.2
		c-1.7,0-3-3.6,1.9-7.2c0,0-12,2.3-6.2,12.7L16.9,11.2z"/>
</g>
</svg>
